Simulation
nRows=16
nColumns=15
endheader
time  TH_x TH_y TH_z SC_y  SC_z  SC_x  AC_y  AC_z  AC_x  GH_y  GH_z  GH_yy  EL_x  PS_y
1.55  0.000000  0.000000  0.000000  -35.773199219937744  7.5528378875488125  23.81236767630344  60.01659958687344  7.808152454536642  -3.3393315831623087  16.52668268097456  54.77075184161383  -17.653820578698284  17.96664439007121  0.000000
1.581  0.000000  0.000000  0.000000  -36.23557240926749  7.84943159648789  23.931072057215466  60.17989245224586  8.284455047506679  -2.630163750016181  16.08088196938082  55.294053733272214  -17.482714020656847  17.94980080980499  0.000000
1.612  0.000000  0.000000  0.000000  -36.65721592943107  8.112549721830934  24.035773505583435  60.321445005106966  8.70633804822032  -1.9946429020026046  15.691112068839052  55.74724731651504  -17.333118082217887  17.938462768689117  0.000000
1.643  0.000000  0.000000  0.000000  -37.03410641652211  8.337260749439212  24.127798158733516  60.44260644184781  9.067850382081163  -1.4454413832527162  15.364712799631778  56.120934360382435  -17.207260615830194  17.934777396251004  0.000000
1.674  0.000000  0.000000  0.000000  -37.3651662081702  8.521145963624894  24.20871907333358  60.543780464784525  9.36457970586039  -0.992636510043398  15.111247668559766  56.40377392987104  -17.10811145042524  17.939621393254598  0.000000
1.705  0.000000  0.000000  0.000000  -37.64961318156731  8.663975685197041  24.279028805484884  60.62383019516358  9.59261446227095  -0.6439278460930885  14.941412921268569  56.58535477696995  -17.038405542356326  17.952032394577603  0.000000
1.736  0.000000  0.000000  0.000000  -37.88393202319396  8.766545990945312  24.337002715418166  60.680322360507006  9.747802636938934  -0.40543232547923747  14.864601647576615  56.658771347743745  -17.00136925474286  17.969571817281164  0.000000
1.767  0.000000  0.000000  0.000000  -38.06025492753627  8.829277608947312  24.378654991947997  60.71029014765575  9.825790125049998  -0.2822743300750296  14.886523770394756  56.621530820943455  -17.00215062197745  17.98918725139764  0.000000
1.798  0.000000  0.000000  0.000000  -38.16719974703174  8.851150544308458  24.398998819720028  60.711366858490415  9.82283275506802  -0.27866004382696713  15.007874970452402  56.47444092825349  -17.049100715609104  18.00813692121088  0.000000
1.829  0.000000  0.000000  0.000000  -38.19263432684751  8.829269908335233  24.394079020701597  60.68275257489871  9.737111016026594  -0.39732323599230013  15.224374446323571  56.21905472151227  -17.1539851734436  18.024672466634254  0.000000
1.8599999999999999  0.000000  0.000000  0.000000  -38.12709016064712  8.759225461660986  24.362604562598342  60.62583276468703  9.569638423655825  -0.6387306667973329  15.527930369430942  55.85557104545183  -17.330773930813237  18.03845563100252  0.000000
1.891  0.000000  0.000000  0.000000  -37.96639915004626  8.636332799494335  24.306162398930933  60.54395520129615  9.324079965465382  -1.00038558090133  15.90847302350703  55.38273071359964  -17.59256700355495  18.050710555170266  0.000000
1.922  0.000000  0.000000  0.000000  -37.71291533294748  8.457556505660696  24.227985798621763  60.44094668035292  9.005666274078097  -1.4766843362072373  16.356359478217144  54.799617713440725  -17.947161389986086  18.064181703080223  0.000000
1.953  0.000000  0.000000  0.000000  -37.37532634694638  8.223016328788706  24.131149156746233  60.319266434818466  8.619976566761975  -2.0592293515879847  16.864454623544578  54.10819071396364  -18.393079475590103  18.082852946831718  0.000000
1.984  0.000000  0.000000  0.000000  -36.96717256844256  7.936267768629328  24.017317794832245  60.179008197866864  8.172565943975133  -2.7374121394924535  17.428777735315524  53.3148595470103  -18.91831243001895  18.111234155243192  0.000000
2.015  0.000000  0.000000  0.000000  -36.505028846056824  7.603785476124486  23.886421975415537  60.01845807411006  7.669340055970469  -3.498850345261151  18.04748881209546  52.43030383923683  -19.502835332949257  18.153418820340125  0.000000
